<?xml version="1.0" standalone="no"?>
<!DOCTYPE svg PUBLIC "-//W3C//DTD SVG 20010904//EN" "http://www.w3.org/TR/2001/REC-SVG-20010904/DTD/svg10.dtd">
<svg version="1.0" xmlns="http://www.w3.org/2000/svg" width="512.000000pt" height="512.000000pt" viewBox="0 0 512.000000 512.000000" preserveAspectRatio="xMidYMid meet">
  <g transform="translate(0.000000,512.000000) scale(0.100000,-0.100000)" fill="#000000" stroke="none">
    <path d="M2360 5102 c-169 -44 -310 -187 -355 -357 -13 -51 -15 -185 -15 -975 0 -861 1 -919 19 -982 37 -137 136 -253 266 -314 85 -40 164 -54 314 -54 86 0 112 -3 108 -13 -2 -6 -48 -124 -102 -262 -54 -137 -98 -263 -98 -279 0 -30 24 -56 54 -56 9 0 68 37 130 83 63 46 250 183 417 305 l303 222 557 0 c317 0 587 5 627 10 200 29 373 191 414 388 8 36 11 337 11 960 0 984 1 961 -55 1072 -36 71 -134 171 -203 208 -119 64 -79 62 -1257 61 -974 0 -1076 -2 -1135 -17z m2312 -134 c74 -34 152 -112 186 -186 l27 -57 0 -955 0 -955 -27 -56 c-38 -76 -109 -146 -188 -183 l-65 -31 -622 -5 -623 -5 -327 -240 c-179 -132 -332 -244 -339 -248 -16 -9 -15 -5 85 250 76 196 79 226 29 237 -13 3 -111 7 -218 8 -195 3 -195 3 -260 34 -123 58 -202 166 -221 302 -6 43 -9 415 -7 944 l3 873 23 58 c31 77 76 134 142 180 100 70 28 66 1245 64 l1100 -2 57 -27z" />
    <path d="M4245 4796 c-18 -27 -7 -69 20 -80 9 -3 92 -6 185 -6 93 0 176 3 185 6 27 11 38 53 20 80 -15 24 -17 24 -205 24 -188 0 -190 0 -205 -24z" />
    <path d="M3400 4623 c-68 -25 -145 -106 -166 -178 -52 -182 78 -359 266 -359 112 0 207 62 254 163 31 69 29 170 -6 237 -67 127 -212 184 -348 137z m187 -124 c69 -43 95 -154 51 -219 -39 -57 -72 -75 -138 -75 -66 0 -99 18 -137 75 -45 65 -23 169 46 216 47 32 128 33 178 3z" />
    <path d="M4243 4574 c-15 -24 -15 -29 -2 -53 l15 -26 194 0 195 0 13 28 c12 24 11 31 -2 53 l-16 24 -190 0 -190 0 -17 -26z" />
    <path d="M3240 3960 c-19 -19 -20 -33 -20 -483 0 -402 2 -465 16 -485 15 -22 18 -22 264 -22 246 0 249 0 264 22 14 20 16 83 16 485 0 450 -1 464 -20 483 -29 29 -78 25 -146 -11 -52 -27 -67 -30 -125 -27 -51 3 -75 10 -107 31 -51 34 -112 37 -142 7z m260 -159 c30 0 79 8 108 18 l52 18 0 -379 0 -378 -160 0 -160 0 0 378 0 379 53 -18 c28 -10 77 -18 107 -18z" />
    <path d="M1576 1774 c-94 -21 -162 -54 -358 -172 l-167 -101 -36 58 c-44 73 -85 96 -159 88 -47 -5 -446 -114 -507 -138 -39 -15 -80 -63 -88 -100 -4 -18 -1 -71 6 -118 15 -109 16 -326 2 -428 -15 -111 -62 -286 -110 -411 -50 -131 -58 -199 -34 -273 34 -101 142 -179 249 -179 153 0 733 127 843 184 39 20 61 60 98 184 16 51 33 96 39 101 29 22 259 91 304 91 31 0 172 -33 378 -89 181 -50 367 -95 413 -102 159 -22 382 3 539 61 86 32 138 61 591 329 303 178 448 270 482 303 88 88 131 215 111 334 -11 68 -33 104 -61 104 -9 0 -234 -74 -500 -165 l-484 -165 -22 20 c-30 28 -1126 543 -1212 570 -91 28 -228 34 -317 14z m304 -131 c109 -40 1110 -517 1110 -529 0 -19 -78 -84 -129 -107 -33 -15 -66 -21 -116 -21 -66 1 -90 8 -433 144 -315 123 -367 141 -387 132 -28 -13 -41 -52 -26 -79 7 -13 126 -65 373 -163 l363 -144 110 -1 c99 0 116 3 168 27 31 15 81 50 110 77 l53 50 484 166 c267 91 488 165 492 165 13 0 9 -64 -8 -113 -31 -91 -69 -119 -524 -389 -459 -271 -542 -315 -665 -348 -100 -28 -320 -38 -421 -21 -38 7 -208 51 -379 98 -285 79 -317 86 -400 86 -79 0 -102 -5 -188 -37 -54 -20 -104 -36 -111 -36 -9 0 -16 18 -21 48 -21 144 -130 506 -203 677 l-30 69 136 84 c296 180 331 194 487 188 68 -2 118 -10 155 -23z m-966 -141 c108 -171 242 -551 301 -853 l26 -134 -38 -115 -38 -115 -55 -18 c-183 -60 -537 -134 -687 -144 -86 -6 -95 -4 -127 18 -75 51 -84 117 -35 250 121 326 161 605 125 874 -8 66 -12 123 -8 127 10 10 469 144 504 147 4 1 18 -16 32 -37z" />
    <path d="M852 1243 c-34 -13 -31 -49 12 -174 34 -97 49 -127 69 -138 22 -13 28 -13 51 2 18 12 26 26 26 47 0 36 -67 229 -88 253 -15 17 -43 21 -70 10z" />
    <path d="M665 1160 c-12 -13 -16 -29 -12 -52 8 -52 117 -361 135 -380 31 -36 92 -9 92 39 0 41 -120 378 -141 396 -28 22 -52 22 -74 -3z" />
  </g>
</svg>