<?xml version="1.0" standalone="no" ?>
<!DOCTYPE svg PUBLIC "-//W3C//DTD SVG 20010904//EN" "http://www.w3.org/TR/2001/REC-SVG-20010904/DTD/svg10.dtd">
<svg version="1.0" xmlns="http://www.w3.org/2000/svg" width="512.000000pt"
height="512.000000pt" viewBox="0 0 512.000000 512.000000" preserveAspectRatio="xMidYMid meet">
  <g transform="translate(0.000000,512.000000) scale(0.100000,-0.100000)"
  fill="#000000" stroke="none">
    <path d="M412 5015 c-124 -27 -230 -113 -290 -234 l-37 -75 -3 -1570 c-3 -1756 -8 -1637 68 -1754 45 -71 94 -113 180 -155 l65 -32 1077 -5 1077 -5 -169 -320 c-93 -176 -174 -342 -181 -369 -34 -143 42 -301 179 -368 l67 -33 1060 0 1060 0 56 28 c63 30 125 92 161 159 20 37 23 58 23 143 l0 100 -170 320 c-93 176 -171 325 -173 331 -2 9 34 13 130 16 125 3 137 5 198 35 86 42 135 84 180 155 75 116 71 19 68 1568 l-3 1385 -34 70 c-45 91 -120 166 -208 208 l-68 32 -1230 5 -1230 5 -55 26 c-67 32 -94 57 -148 136 -74 108 -167 172 -291 199 -95 20 -1266 19 -1359 -1z m1360 -161 c59 -20 115 -68 173 -150 54 -75 139 -142 223 -176 l57 -23 1230 -5 c1361 -6 1259 0 1339 -70 35 -32 65 -79 80 -127 l7 -23 -2326 0 -2327 0 4 193 c4 214 9 235 74 307 37 41 75 66 124 81 14 4 311 8 661 8 550 1 642 -1 681 -15z m3116 -2021 c-3 -1284 -3 -1288 -24 -1333 -11 -25 -42 -64 -67 -87 -66 -61 -121 -74 -291 -71 l-137 3 -302 570 c-207 388 -315 582 -340 607 -88 89 -226 121 -340 78 -115 -44 -127 -61 -458 -690 l-297 -565 -1078 -3 c-1214 -2 -1147 -6 -1231 71 -25 23 -56 62 -67 87 -21 45 -21 49 -24 1333 l-2 1287 2330 0 2330 0 -2 -1287z m-1293 -393 c16 -10 36 -29 44 -41 56 -92 1013 -1908 1021 -1939 20 -74 -23 -165 -93 -199 -43 -21 -48 -21 -1060 -21 -693 0 -1025 3 -1044 11 -68 25 -113 95 -113 176 0 42 45 133 506 1007 278 529 516 971 528 984 51 52 146 62 211 22z"
    />
    <path d="M585 4769 c-102 -38 -162 -148 -135 -248 15 -55 70 -116 125 -137 62 -23 142 -15 193 19 112 73 109 260 -4 340 -46 32 -129 44 -179 26z m105 -168 c16 -31 12 -49 -15 -67 -23 -15 -27 -15 -50 0 -27 18 -33 54 -13 74 19 19 66 15 78 -7z"
    />
    <path d="M1039 4753 c-90 -46 -131 -133 -109 -231 21 -93 104 -161 196 -162 58 0 139 43 172 93 37 55 43 156 13 214 -53 105 -164 140 -272 86z m135 -155 c17 -28 -4 -72 -37 -76 -16 -2 -35 2 -43 9 -17 14 -18 61 -2 77 17 17 69 11 82 -10z"
    />
    <path d="M1522 4755 c-124 -63 -156 -219 -66 -323 138 -162 392 -28 353 185 -17 88 -88 151 -181 159 -44 5 -62 1 -106 -21z m132 -157 c17 -28 -4 -72 -37 -76 -50 -6 -72 32 -46 79 13 25 67 23 83 -3z"
    />
    <path d="M1416 3839 c-388 -53 -713 -302 -866 -661 -53 -125 -72 -219 -78 -378 -3 -109 0 -167 12 -233 83 -442 431 -790 873 -873 121 -23 344 -15 463 16 105 27 270 104 359 167 145 104 289 278 361 438 285 634 -90 1365 -775 1511 -90 19 -261 26 -349 13z m290 -160 c353 -62 633 -314 741 -666 24 -80 27 -103 27 -248 1 -137 -3 -171 -22 -239 -104 -360 -387 -618 -749 -681 -425 -74 -854 169 -1016 576 -148 370 -37 800 272 1056 114 94 261 165 406 196 83 18 257 21 341 6z"
    />
    <path d="M1118 3358 c-85 -23 -168 -136 -168 -230 0 -76 21 -111 146 -239 l117 -119 -115 -117 c-132 -136 -153 -175 -146 -270 3 -45 11 -69 36 -106 61 -87 155 -122 256 -93 49 15 70 30 179 136 l123 119 105 -105 c114 -115 162 -150 225 -160 164 -26 312 161 249 314 -9 21 -65 86 -133 155 l-117 117 117 118 c64 64 123 131 132 148 70 141 -25 308 -189 331 -69 9 -127 -18 -215 -101 -41 -39 -96 -91 -122 -115 l-48 -45 -122 121 c-108 106 -130 123 -177 137 -61 18 -79 18 -133 4z m247 -298 c120 -119 158 -150 179 -150 21 0 62 33 185 150 87 83 167 150 176 150 10 0 33 -9 51 -21 28 -17 34 -27 34 -57 0 -33 -13 -48 -150 -188 -121 -123 -150 -157 -150 -180 0 -22 28 -56 144 -173 79 -80 146 -154 149 -163 9 -24 -11 -76 -33 -88 -50 -27 -68 -15 -225 140 -124 122 -157 150 -180 150 -23 0 -56 -27 -174 -144 -80 -80 -157 -149 -171 -154 -32 -12 -64 0 -85 32 -30 46 -13 73 135 221 185 185 185 162 -5 355 -134 136 -151 159 -145 200 4 29 53 70 83 70 25 0 55 -25 182 -150z"
    />
    <path d="M2674 3776 c-51 -22 -60 -81 -19 -121 l24 -25 973 0 c1062 0 1008 -3 1022 56 10 39 -11 81 -46 93 -21 8 -333 11 -977 11 -771 -1 -952 -3 -977 -14z"
    />
    <path d="M2870 3330 c-12 -12 -20 -33 -20 -55 0 -22 8 -43 20 -55 20 -20 33 -20 894 -20 l875 0 20 26 c28 35 26 69 -4 99 l-24 25 -871 0 c-857 0 -870 0 -890 -20z"
    />
    <path d="M3803 2908 c-51 -24 -52 -110 -2 -135 18 -10 125 -13 419 -13 294 0
    401 3 419 13 52 26 48 111 -5 136 -33 15 -799 14 -831 -1z" />
    <path d="M3438 1976 c-130 -35 -208 -141 -208 -280 0 -123 38 -492 55 -532 66 -160 276 -194 388 -63 19 21 39 55 45 76 7 21 22 153 34 293 20 242 20 258 5 312 -23 78 -71 137 -137 170 -69 34 -122 41 -182 24z m107 -150 c71 -30 76 -77 47 -410 -18 -197 -18 -199 -47 -223 -22 -19 -35 -23 -59 -19 -34 7 -66 38 -66 66 0 9 -9 121 -20 248 -22 264 -19 290 39 329 39 27 59 28 106 9z"
    />
    <path d="M3465 944 c-90 -22 -150 -66 -188 -138 -30 -58 -30 -174 0 -232 26 -48 83 -101 132 -121 59 -25 152 -20 216 12 88 43 134 119 134 225 1 97 -65 199 -153 235 -37 16 -113 25 -141 19z m103 -179 c36 -31 46 -66 32 -111 -21 -64 -105 -84 -159 -38 -27 22 -31 32 -31 72 0 26 6 54 13 63 35 45 101 51 145 14z"
    />
  </g>
</svg>