<?xml version="1.0" standalone="no" ?>
<!DOCTYPE svg PUBLIC "-//W3C//DTD SVG 20010904//EN" "http://www.w3.org/TR/2001/REC-SVG-20010904/DTD/svg10.dtd">
<svg version="1.0" xmlns="http://www.w3.org/2000/svg" width="512.000000pt"
height="512.000000pt" viewBox="0 0 512.000000 512.000000" preserveAspectRatio="xMidYMid meet">
  <g transform="translate(0.000000,512.000000) scale(0.100000,-0.100000)"
  fill="#000000" stroke="none">
    <path d="M393 5106 c-186 -45 -347 -214 -383 -401 -8 -44 -10 -589 -8 -2010 l3 -1950 23 -59 c83 -219 274 -345 524 -346 l87 0 31 -59 c67 -126 222 -239 368 -270 38 -8 482 -11 1525 -11 1617 0 1533 -3 1659 61 81 41 187 143 228 220 l31 59 87 0 c250 1 441 126 524 346 l23 59 3 1945 c2 1389 0 1964 -8 2010 -33 194 -203 368 -398 409 -81 17 -4248 14 -4319 -3z m4358 -189 c67 -32 141 -108 172 -174 20 -45 22 -64 25 -345 l3 -298 -2391 0 -2391 0 3 298 3 297 28 56 c45 92 135 165 232 190 17 4 982 6 2145 6 l2115 -2 56 -28z m194 -2567 l0 -1575 -29 -62 c-55 -121 -165 -191 -310 -200 l-83 -6 -5 84 c-4 51 -15 108 -29 144 -29 77 -1489 2605 -1538 2665 -53 63 -125 115 -201 146 -78 32 -214 43 -302 25 -120 -25 -242 -109 -311 -214 -83 -125 -1486 -2569 -1507 -2622 -13 -36 -24 -93 -28 -144 l-5 -84 -83 6 c-167 10 -284 98 -328 247 -14 48 -16 218 -16 1605 0 853 3 1555 7 1558 3 4 1078 6 2387 5 l2381 -3 0 -1575z m-2240 1029 c28 -13 70 -44 95 -69 33 -34 232 -370 772 -1306 400 -693 738 -1282 750 -1310 19 -40 23 -66 23 -144 0 -88 -3 -101 -33 -162 -40 -82 -119 -157 -200 -190 l-57 -23 -1495 0 -1495 0 -57 23 c-81 33 -160 108 -200 190 -30 61 -33 74 -33 162 0 81 4 103 26 150 34 73 1463 2546 1496 2588 29 39 114 96 164 111 58 18 187 7 244 -20z"
    />
    <path d="M510 4761 c-107 -38 -181 -158 -166 -269 18 -130 123 -222 253 -222 143 0 252 110 253 253 0 178 -171 298 -340 238z m123 -163 c53 -28 64 -92 22 -133 -65 -65 -173 9 -133 91 13 28 50 54 76 54 7 0 23 -5 35 -12z"
    />
    <path d="M1200 4765 c-101 -32 -172 -131 -173 -240 0 -80 25 -136 83 -188 166 -150 425 -34 423 188 -1 112 -73 209 -177 240 -60 18 -97 18 -156 0z m119 -170 c33 -16 41 -33 41 -80 0 -66 -83 -98 -134 -52 -42 37 -36 106 12 131 34 19 46 19 81 1z"
    />
    <path d="M1894 4769 c-108 -31 -184 -132 -184 -243 1 -147 108 -256 253 -256 97 0 175 45 220 129 37 67 43 124 22 197 -38 130 -182 211 -311 173z m127 -185 c37 -34 32 -99 -10 -131 -49 -38 -131 6 -131 69 1 75 86 112 141 62z"
    />
    <path d="M3592 4765 c-131 -41 -205 -179 -167 -311 13 -47 27 -69 70 -111 32 -31 68 -56 92 -62 24 -7 208 -11 516 -11 516 0 508 -1 580 54 42 32 85 110 93 168 10 73 -19 154 -74 209 -79 78 -84 79 -611 78 -351 0 -466 -3 -499 -14z m968 -168 c53 -27 62 -96 18 -137 -21 -19 -33 -20 -483 -20 l-462 0 -20 23 c-11 12 -23 30 -26 40 -10 26 18 86 45 97 38 15 898 12 928 -3z"
    />
    <path d="M2465 2890 c-55 -17 -139 -75 -171 -117 -46 -61 -74 -142 -74 -216 0 -34 16 -308 34 -608 38 -619 34 -599 126 -682 104 -94 256 -94 360 0 92 83 88 62 127 686 18 304 32 584 30 623 -7 128 -68 225 -179 284 -54 29 -74 34 -143 37 -44 1 -93 -2 -110 -7z m176 -183 c31 -17 50 -37 68 -70 l24 -47 -35 -581 -34 -581 -32 -29 c-64 -58 -163 -24 -176 59 -3 20 -20 283 -37 585 l-32 547 24 47 c28 54 90 93 149 93 20 0 57 -10 81 -23z"
    />
    <path d="M2430 998 c-66 -25 -145 -101 -180 -173 -20 -42 -25 -65 -25 -140 0 -79 4 -97 28 -147 40 -82 120 -152 204 -178 82 -25 124 -25 206 0 84 26 164 96 204 178 24 50 28 68 28 147 0 109 -23 163 -100 241 -91 92 -238 121 -365 72z m228 -177 c40 -28 72 -89 72 -135 0 -113 -107 -196 -214 -166 -48 13 -99 59 -115 103 -32 84 14 185 99 220 33 14 126 1 158 -22z"
    />
  </g>
</svg>