<svg xmlns="http://www.w3.org/2000/svg" version="1.1" xmlns:xlink="http://www.w3.org/1999/xlink" width="330.3" height="208.7"><svg xmlns="http://www.w3.org/2000/svg" version="1.1" xmlns:xlink="http://www.w3.org/1999/xlink" width="330.3" height="208.7"><svg xmlns="http://www.w3.org/2000/svg" viewBox="0 0 330.3 208.7">
    <defs>
      <style>
        .cls-1{isolation:isolate;}.cls-2{fill:#6b5140;}.cls-3{fill:#5a3e2b;}.cls-4{fill:#0b3c2e;}.cls-5{fill:#fff;}.cls-11,.cls-5,.cls-8{opacity:0.5;}.cls-11,.cls-5{mix-blend-mode:soft-light;}.cls-6,.cls-7{fill:#601b37;}.cls-7{opacity:0.3;}.cls-7,.cls-8{mix-blend-mode:multiply;}.cls-9{fill:#dd2f58;}.cls-10{fill:#d9b336;}.cls-12{fill:#16060c;}
      </style>
    </defs>
    <g class="cls-1">
      <g id="OBJECTS">
        <path class="cls-2" d="M283.8,92A41.7,41.7,0,0,0,264,107.6l3.7,1.3a3.5,3.5,0,0,0-2.5,3,3.5,3.5,0,0,0,2.3,2.9,3.1,3.1,0,0,1-1.2-2.3c0-1.3,1.1-2.4,2.6-3h0a30.6,30.6,0,0,1,10.5,7.9,19,19,0,0,1,4.2,9.4c-12.1,1.6-23.2,4.9-32.1,9.7l-1.4.7-1.3-.7c-8.9-4.8-20-8.1-32.1-9.7a18.6,18.6,0,0,1,4.2-9.4,28.8,28.8,0,0,1,10.5-7.9c1.5.6,2.6,1.7,2.6,3a2.9,2.9,0,0,1-1.3,2.3,3,3,0,0,0-.1-5.9l3.7-1.3A41.5,41.5,0,0,0,216.4,92a2.4,2.4,0,0,1-1.4-3,2.4,2.4,0,0,1,3.1-1.4,46.4,46.4,0,0,1,23.1,18.8,42.6,42.6,0,0,1,8.9-.9,43.6,43.6,0,0,1,9,.9,46.4,46.4,0,0,1,23.1-18.8,2.3,2.3,0,0,1,3,1.4A2.2,2.2,0,0,1,283.8,92Z" transform="translate(-85 -87.4)"></path>
        <path class="cls-3" d="M250.1,137.2l-1.3-.7c-8.9-4.8-20-8.1-32.1-9.7a18.6,18.6,0,0,1,4.2-9.4C234.6,120.2,248.4,133.1,250.1,137.2Z" transform="translate(-85 -87.4)"></path>
        <path class="cls-3" d="M283.6,126.8c-12.1,1.6-23.2,4.9-32.1,9.7l-1.4.7c1.8-4.1,15.6-17,29.3-19.8A19,19,0,0,1,283.6,126.8Z" transform="translate(-85 -87.4)"></path>
        <path class="cls-4" d="M246.5,140.6c-55,2.2-102.3,51.1-114.4,87.3a142.1,142.1,0,0,1-26.6-2A139.5,139.5,0,0,1,85,220.8C105,130.1,203.7,117.7,246.5,140.6Z" transform="translate(-85 -87.4)"></path>
        <path class="cls-4" d="M196.3,210.9a137.8,137.8,0,0,1-59.1,16.8c5.8-16.2,18.8-34.9,36.3-50.3A76.7,76.7,0,0,1,196.3,210.9Z" transform="translate(-85 -87.4)"></path>
        <path class="cls-4" d="M246.1,145.4c-3.2,25-20.6,47.8-45.7,63a80.5,80.5,0,0,0-23.3-34.2C196.3,158.4,220.3,146.5,246.1,145.4Z" transform="translate(-85 -87.4)"></path>
        <path class="cls-4" d="M253.8,140.6c42.8-22.9,141.5-10.5,161.5,80.2a142.5,142.5,0,0,1-47.2,7.1C356,191.7,308.7,142.8,253.8,140.6Z" transform="translate(-85 -87.4)"></path>
        <path class="cls-4" d="M304,210.9a137.8,137.8,0,0,0,59.1,16.8c-5.9-16.2-18.8-34.9-36.3-50.3A76.7,76.7,0,0,0,304,210.9Z" transform="translate(-85 -87.4)"></path>
        <path class="cls-4" d="M254.2,145.4c3.2,25,20.6,47.8,45.6,63a82.3,82.3,0,0,1,23.3-34.2C304,158.4,280,146.5,254.2,145.4Z" transform="translate(-85 -87.4)"></path>
        <path class="cls-5" d="M246.5,140.6c-92.5-17.2-130.2,51.5-141,85.3A139.5,139.5,0,0,1,85,220.8C105,130.1,203.7,117.7,246.5,140.6Z" transform="translate(-85 -87.4)"></path>
        <path class="cls-5" d="M253.8,140.6c92.5-17.2,130.1,51.5,141,85.3a142.7,142.7,0,0,0,20.5-5.1C395.3,130.1,296.5,117.7,253.8,140.6Z" transform="translate(-85 -87.4)"></path>
        <path class="cls-6" d="M247.7,182.8c-10.4,36.7-47.9,72.3-98.3,78-.6-3.1-1.2-6.1-1.5-9a92.5,92.5,0,0,1-.7-20.2c24.2-3,47.1-11.9,65.7-25.9,14.9-11.2,25.8-24.6,32.2-39.1A77,77,0,0,0,247.7,182.8Z" transform="translate(-85 -87.4)"></path>
        <path class="cls-7" d="M245.1,166.6c-4.3,27.5-49.2,75.9-97.2,85.2a92.5,92.5,0,0,1-.7-20.2c24.2-3,47.1-11.9,65.7-25.9C227.8,194.5,238.7,181.1,245.1,166.6Z" transform="translate(-85 -87.4)"></path>
        <path class="cls-6" d="M350.8,260.8c-50.3-5.7-87.8-41.3-98.2-78a84,84,0,0,0,2.6-16.2c6.3,14.5,17.3,27.9,32.1,39.1,18.7,14,41.6,22.9,65.8,25.9A102.6,102.6,0,0,1,350.8,260.8Z" transform="translate(-85 -87.4)"></path>
        <path class="cls-7" d="M255.2,166.6c4.3,27.5,49.1,75.9,97.2,85.2a92.5,92.5,0,0,0,.7-20.2c-24.2-3-47.1-11.9-65.8-25.9C272.5,194.5,261.5,181.1,255.2,166.6Z" transform="translate(-85 -87.4)"></path>
        <g class="cls-8">
          <path class="cls-9" d="M268.8,281.7c2.5.5,5.1,1,7.7,1.3-6.6,5.5-15.3,10-26.4,13.2C256.5,293.9,263.1,288.4,268.8,281.7Z" transform="translate(-85 -87.4)"></path>
          <path class="cls-9" d="M286.1,263.1a48.7,48.7,0,0,0,5.4-.2,53.2,53.2,0,0,1-10.3,15.7c-3-.2-6.1-.6-9.1-1.1a67.8,67.8,0,0,0,8.4-14.6A53.3,53.3,0,0,0,286.1,263.1Z" transform="translate(-85 -87.4)"></path>
          <path class="cls-9" d="M295.9,246.1a62.4,62.4,0,0,1-2.6,11.8,57.4,57.4,0,0,1-11.1.4,28.2,28.2,0,0,0,1.5-8.5s-34.7-33.3-33.6-59.2a97.5,97.5,0,0,0,8.4,17.2A118,118,0,0,0,295.9,246.1Z" transform="translate(-85 -87.4)"></path>
        </g>
        <path class="cls-10" d="M276.5,283c-6.6,5.5-15.3,10-26.4,13.2-11.1-3.2-19.7-7.7-26.3-13.2,10.4-1.2,20.4-4.3,26.3-7.8,4.4,2.6,11.2,5,18.7,6.5C271.3,282.2,273.9,282.7,276.5,283Z" transform="translate(-85 -87.4)"></path>
        <path class="cls-10" d="M291.5,262.9a53.2,53.2,0,0,1-10.3,15.7c-3-.2-6.1-.6-9.1-1.1-8.5-1.5-16.4-4.2-20.6-7.1l-1.4-1-1.3,1c-5.6,4-18,7.4-29.7,8.2a53.2,53.2,0,0,1-10.3-15.7c14.4,1.3,32.6-2.8,41.3-8.2,6.7,4.1,18.7,7.4,30.4,8.2a53.3,53.3,0,0,0,5.6.2A48.7,48.7,0,0,0,291.5,262.9Z" transform="translate(-85 -87.4)"></path>
        <path class="cls-10" d="M295.9,246.1a62.4,62.4,0,0,1-2.6,11.8,57.4,57.4,0,0,1-11.1.4c-12-.7-24.9-4.2-30.7-8.3l-1.4-1-1.3,1c-7.7,5.4-27.9,9.8-41.9,7.9a70.9,70.9,0,0,1-2.5-11.8,118,118,0,0,0,37.4-38.3,96.9,96.9,0,0,0,8.3-17.2,97.5,97.5,0,0,0,8.4,17.2A118,118,0,0,0,295.9,246.1Z" transform="translate(-85 -87.4)"></path>
        <g class="cls-11">
          <path class="cls-12" d="M231.5,281.7c-2.5.5-5.1,1-7.7,1.3,6.6,5.5,15.2,10,26.3,13.2C243.8,293.9,237.2,288.4,231.5,281.7Z" transform="translate(-85 -87.4)"></path>
          <path class="cls-12" d="M214.2,263.1a47,47,0,0,1-5.4-.2,51.3,51.3,0,0,0,10.3,15.7c3-.2,6.1-.6,9.1-1.1a67.8,67.8,0,0,1-8.4-14.6A53.3,53.3,0,0,1,214.2,263.1Z" transform="translate(-85 -87.4)"></path>
          <path class="cls-12" d="M204.4,246.1a70.9,70.9,0,0,0,2.5,11.8,58.7,58.7,0,0,0,11.2.4,28.2,28.2,0,0,1-1.5-8.5s34.7-33.3,33.5-59.2a96.9,96.9,0,0,1-8.3,17.2A118,118,0,0,1,204.4,246.1Z" transform="translate(-85 -87.4)"></path>
        </g>
      </g>
    </g>
  </svg></svg><style>@media (prefers-color-scheme: light) { :root { filter: none; } }
@media (prefers-color-scheme: dark) { :root { filter: none; } }
</style></svg>