<?xml version="1.0" standalone="no" ?>
<svg version="1.0" xmlns="http://www.w3.org/2000/svg" width="512.000000pt"
height="512.000000pt" viewBox="0 0 512.000000 512.000000" preserveAspectRatio="xMidYMid meet">
  <g transform="translate(0.000000,512.000000) scale(0.100000,-0.100000)"
  fill="currentColor" stroke="none">
    <path d="M1145 4775 c-28 -27 -33 -70 -11 -100 8 -11 77 -51 155 -90 133 -66
    141 -71 141 -99 0 -16 -16 -189 -36 -384 -25 -252 -33 -362 -26 -377 7 -14 99
    -73 251 -159 133 -75 241 -140 241 -144 0 -4 -30 -38 -68 -75 l-68 -67 -197 0
    -197 0 -155 310 c-91 182 -163 313 -174 320 -12 6 -95 10 -206 10 -184 0 -186
    0 -210 -25 -33 -32 -33 -78 0 -110 23 -24 28 -25 175 -25 l150 0 155 -310 c91
    -182 163 -313 174 -320 11 -6 85 -10 171 -10 l152 0 -184 -192 c-852 -892
    -1316 -1510 -1370 -1830 -33 -187 64 -367 245 -456 117 -58 202 -75 377 -75
    136 0 167 3 253 26 234 63 494 206 699 387 31 28 59 50 61 50 3 0 43 -51 90
    -114 l86 -114 -127 -161 -127 -160 -158 0 c-154 -1 -159 -2 -182 -26 -33 -32
    -33 -78 0 -110 24 -25 26 -25 213 -25 135 0 193 4 205 12 8 7 93 109 186 227
    126 158 171 221 171 240 0 19 -36 76 -121 190 l-122 162 29 32 c16 18 32 36
    36 41 3 4 40 -25 81 -67 184 -184 395 -271 657 -271 263 0 475 88 657 272 41
    41 77 71 81 66 4 -5 20 -23 36 -41 l29 -32 -122 -162 c-85 -114 -121 -171
    -121 -190 0 -19 45 -82 171 -240 93 -118 178 -220 186 -226 12 -9 70 -13 205
    -13 187 0 189 0 213 25 33 32 33 78 0 110 -23 24 -28 25 -182 26 l-158 0 -127
    160 -127 161 86 114 c47 63 87 114 90 114 2 0 30 -22 61 -50 206 -181 459
    -321 697 -386 89 -25 117 -28 255 -27 175 0 260 17 377 75 181 89 278 269 245
    456 -54 320 -519 939 -1370 1830 l-184 192 151 0 c87 0 161 4 172 10 11 7 83
    138 174 320 l155 310 150 0 c147 0 152 1 175 25 33 32 33 78 0 110 -24 25 -26
    25 -210 25 -111 0 -194 -4 -206 -10 -11 -7 -83 -138 -174 -320 l-155 -310
    -198 0 -198 0 -69 70 c-42 42 -65 73 -60 78 6 5 115 69 243 142 149 84 237
    140 244 154 7 16 -1 123 -26 378 -20 195 -36 368 -36 384 0 28 8 33 141 99 78
    39 147 79 155 90 34 47 -4 125 -61 125 -40 0 -384 -176 -396 -203 -8 -17 -1
    -117 26 -385 20 -200 35 -374 33 -389 -3 -26 -47 -54 -325 -210 l-64 -35 30
    47 c16 26 33 60 36 76 4 17 19 36 41 49 167 104 179 354 22 495 -101 91 -244
    137 -487 157 l-144 12 44 39 c24 21 79 59 122 84 43 26 82 54 88 64 26 50 -13
    119 -68 119 -38 0 -161 -73 -250 -150 l-73 -61 -72 61 c-90 77 -213 150 -251
    150 -55 0 -94 -69 -68 -119 6 -10 45 -38 88 -64 43 -25 98 -63 122 -84 l44
    -39 -144 -12 c-243 -20 -386 -66 -487 -157 -157 -141 -145 -391 22 -495 22
    -13 37 -32 41 -49 3 -16 19 -50 35 -75 l30 -46 -28 14 c-15 8 -101 57 -192
    109 -141 80 -165 98 -168 120 -2 15 13 189 33 389 27 268 34 368 26 385 -12
    27 -356 203 -396 203 -14 0 -37 -11 -50 -25z m1321 -557 c-22 -109 -129 -249
    -232 -301 -245 -124 -465 -31 -374 159 52 106 241 166 544 173 l69 1 -7 -32z
    m509 7 c156 -27 249 -76 285 -149 91 -190 -129 -283 -374 -159 -103 52 -210
    192 -232 302 l-7 34 122 -7 c67 -4 160 -13 206 -21z m-366 -273 c93 -120 236
    -208 389 -240 45 -9 82 -19 82 -22 0 -3 -26 -36 -59 -72 l-58 -66 -27 -138
    c-57 -306 -68 -411 -75 -754 l-6 -295 -70 -19 c-55 -15 -104 -19 -225 -19
    -121 0 -170 4 -225 19 l-70 19 -6 295 c-3 162 -11 338 -18 390 -16 135 -48
    325 -70 424 -17 79 -23 90 -75 147 -31 34 -56 65 -56 68 0 4 37 14 83 23 155
    32 326 142 408 263 13 19 26 35 29 34 3 0 25 -26 49 -57z m-555 -727 c76 -513
    66 -961 -31 -1295 -28 -98 -105 -283 -133 -320 l-18 -24 -11 40 c-78 292 -93
    857 -37 1417 l13 129 94 94 c61 61 96 89 100 81 3 -6 14 -61 23 -122z m1242
    -181 c56 -556 41 -1127 -37 -1418 -11 -39 -12 -40 -26 -21 -25 34 -83 165
    -118 270 -37 110 -68 255 -86 410 -16 127 -15 494 0 650 13 125 48 376 58 409
    4 15 22 2 100 -77 l96 -95 13 -128z m-1649 -166 c-4 -57 -11 -190 -15 -297
    l-7 -194 -187 -63 c-179 -59 -188 -61 -188 -41 0 11 5 84 12 161 l11 141 71
    75 c56 60 309 320 311 320 0 0 -3 -46 -8 -102z m2062 -148 l137 -145 12 -141
    c7 -77 12 -150 12 -161 0 -20 -9 -18 -187 41 l-188 63 -7 194 c-4 107 -11 240
    -15 297 l-9 102 54 -52 c30 -29 116 -118 191 -198z m-2628 -564 c-6 -99 -11
    -305 -11 -457 l0 -276 -167 -27 c-93 -15 -179 -30 -192 -33 -21 -5 -23 -3 -18
    18 3 13 11 146 18 294 l12 270 44 55 c132 164 318 369 321 354 2 -9 -1 -98 -7
    -198z m3081 68 c68 -77 148 -172 179 -210 l56 -69 12 -271 c7 -149 15 -281 18
    -294 5 -20 3 -22 -18 -17 -13 3 -99 18 -190 32 l-166 28 -7 396 c-4 218 -10
    431 -14 474 -4 42 -4 76 0 75 4 -2 62 -66 130 -144z m-2497 -434 c18 -117 57
    -282 80 -336 8 -20 15 -43 15 -52 0 -51 -386 -432 -438 -432 -16 0 -49 118
    -68 240 -18 118 -31 668 -19 793 l7 76 191 64 192 64 12 -156 c7 -86 19 -203
    28 -261z m2219 237 c9 -82 7 -550 -4 -677 -16 -187 -58 -380 -82 -380 -49 0
    -438 381 -438 428 0 7 11 46 25 87 49 145 87 373 100 606 l7 117 193 -65 192
    -64 7 -52z m-1494 138 c145 -23 293 -16 460 21 25 5 25 4 52 -133 15 -76 42
    -183 61 -238 19 -55 36 -107 38 -115 6 -21 -136 -75 -245 -95 -113 -19 -279
    -19 -392 0 -109 20 -251 74 -245 95 2 8 19 60 38 115 19 55 46 162 61 238 27
    137 27 138 52 133 14 -3 68 -13 120 -21z m-1850 -685 c-27 -395 -83 -731 -122
    -738 -10 -2 -44 8 -75 23 -153 69 -216 209 -163 365 40 120 159 320 307 517
    l58 78 3 -40 c2 -22 -1 -114 -8 -205z m4189 30 c113 -166 180 -287 211 -380
    52 -156 -10 -296 -163 -365 -80 -37 -89 -33 -109 48 -46 183 -99 643 -98 852
    l1 60 29 -35 c17 -19 74 -100 129 -180z m-2561 -16 c171 -62 401 -81 599 -49
    75 12 203 51 294 89 12 5 26 -10 59 -66 24 -40 50 -81 58 -90 13 -16 10 -23
    -34 -74 -95 -112 -240 -203 -390 -246 -110 -31 -277 -31 -387 0 -161 46 -314
    145 -409 264 -27 35 -29 41 -16 56 9 9 34 50 58 90 33 56 47 71 59 66 9 -3 58
    -22 109 -40z m-1073 -291 c8 -71 40 -199 66 -267 10 -28 19 -54 19 -58 0 -14
    -185 -97 -271 -122 -91 -26 -213 -46 -281 -46 -34 0 -39 3 -34 17 14 34 66
    310 72 380 4 39 9 75 13 80 5 9 333 69 387 72 19 1 23 -6 29 -56z m3145 25
    c107 -17 198 -36 201 -41 4 -5 9 -41 13 -80 6 -70 58 -346 72 -380 5 -14 0
    -17 -34 -17 -125 0 -317 47 -447 110 -117 56 -110 43 -75 147 16 50 38 137 47
    192 10 56 20 101 23 101 3 0 93 -14 200 -32z" />
  </g>
</svg>
