<svg viewBox="0 0 191 24" preserveAspectRatio="xMidYMid meet" fill="none" xmlns="http://www.w3.org/2000/svg" style="width: 100%; height: 100%;">
  <path d="M0.896307 1.18182H6.58523L12.5938 15.8409H12.8494L18.858 1.18182H24.5469V23H20.0724V8.79901H19.8913L14.245 22.8935H11.1982L5.55185 8.74574H5.37074V23H0.896307V1.18182ZM46.5972 12.0909C46.5972 14.4702 46.1462 16.4943 45.2442 18.1634C44.3493 19.8324 43.1277 21.1072 41.5794 21.9879C40.0382 22.8615 38.3053 23.2983 36.3806 23.2983C34.4417 23.2983 32.7016 22.858 31.1604 21.9773C29.6192 21.0966 28.4012 19.8217 27.5063 18.1527C26.6114 16.4837 26.164 14.4631 26.164 12.0909C26.164 9.71165 26.6114 7.6875 27.5063 6.01847C28.4012 4.34943 29.6192 3.07812 31.1604 2.20455C32.7016 1.32386 34.4417 0.883522 36.3806 0.883522C38.3053 0.883522 40.0382 1.32386 41.5794 2.20455C43.1277 3.07812 44.3493 4.34943 45.2442 6.01847C46.1462 7.6875 46.5972 9.71165 46.5972 12.0909ZM41.9204 12.0909C41.9204 10.5497 41.6895 9.25 41.2279 8.19176C40.7733 7.13352 40.1306 6.33097 39.2996 5.78409C38.4686 5.23722 37.4956 4.96378 36.3806 4.96378C35.2655 4.96378 34.2925 5.23722 33.4615 5.78409C32.6306 6.33097 31.9843 7.13352 31.5226 8.19176C31.0681 9.25 30.8408 10.5497 30.8408 12.0909C30.8408 13.6321 31.0681 14.9318 31.5226 15.9901C31.9843 17.0483 32.6306 17.8509 33.4615 18.3977C34.2925 18.9446 35.2655 19.218 36.3806 19.218C37.4956 19.218 38.4686 18.9446 39.2996 18.3977C40.1306 17.8509 40.7733 17.0483 41.2279 15.9901C41.6895 14.9318 41.9204 13.6321 41.9204 12.0909ZM48.2143 23V1.18182H56.8222C58.47 1.18182 59.8762 1.47656 61.041 2.06605C62.2129 2.64844 63.1042 3.47585 63.715 4.5483C64.3329 5.61364 64.6418 6.86719 64.6418 8.30895C64.6418 9.75781 64.3293 11.0043 63.7043 12.0483C63.0793 13.0852 62.1738 13.8807 60.9877 14.4347C59.8087 14.9886 58.3812 15.2656 56.705 15.2656H50.9416V11.5582H55.9593C56.84 11.5582 57.5715 11.4375 58.1539 11.196C58.7363 10.9545 59.1695 10.5923 59.4536 10.1094C59.7448 9.62642 59.8904 9.02628 59.8904 8.30895C59.8904 7.58452 59.7448 6.97372 59.4536 6.47656C59.1695 5.9794 58.7327 5.60298 58.1433 5.3473C57.5609 5.08452 56.8258 4.95312 55.938 4.95312H52.8272V23H48.2143ZM59.9969 13.071L65.4195 23H60.3272L55.0218 13.071H59.9969ZM65.2708 4.98508V1.18182H83.1898V4.98508H76.5102V23H71.9505V4.98508H65.2708ZM88.9538 1.18182V23H84.3408V1.18182H88.9538Z" fill="#0B3C2E" />
  <path d="M102.785 7.45668C102.7 6.5973 102.334 5.92969 101.688 5.45383C101.041 4.97798 100.164 4.74006 99.0563 4.74006C98.3034 4.74006 97.6678 4.84659 97.1493 5.05966C96.6309 5.26562 96.2331 5.55327 95.9561 5.92258C95.6863 6.2919 95.5513 6.71094 95.5513 7.17969C95.5371 7.57031 95.6188 7.91122 95.7963 8.20241C95.981 8.49361 96.2331 8.74574 96.5527 8.95881C96.8723 9.16477 97.2417 9.34588 97.6607 9.50213C98.0797 9.65128 98.5272 9.77912 99.003 9.88565L100.963 10.3544C101.915 10.5675 102.789 10.8516 103.584 11.2067C104.379 11.5618 105.068 11.9986 105.651 12.517C106.233 13.0355 106.684 13.6463 107.004 14.3494C107.33 15.0526 107.497 15.8587 107.504 16.7678C107.497 18.103 107.156 19.2607 106.482 20.2408C105.814 21.2138 104.848 21.9702 103.584 22.5099C102.327 23.0426 100.811 23.3089 99.035 23.3089C97.2736 23.3089 95.7395 23.0391 94.4327 22.4993C93.133 21.9595 92.1174 21.1605 91.3858 20.1023C90.6614 19.0369 90.2814 17.7195 90.2459 16.1499H94.7097C94.7594 16.8814 94.9689 17.4922 95.3382 17.9822C95.7147 18.4652 96.2154 18.831 96.8404 19.0795C97.4725 19.321 98.1863 19.4418 98.9817 19.4418C99.763 19.4418 100.441 19.3281 101.017 19.1009C101.599 18.8736 102.05 18.5575 102.369 18.1527C102.689 17.7479 102.849 17.2827 102.849 16.7571C102.849 16.267 102.703 15.8551 102.412 15.5213C102.128 15.1875 101.709 14.9034 101.155 14.669C100.608 14.4347 99.937 14.2216 99.1415 14.0298L96.7658 13.4332C94.9263 12.9858 93.4739 12.2862 92.4086 11.3345C91.3432 10.3828 90.8141 9.10085 90.8212 7.48864C90.8141 6.16761 91.1657 5.01349 91.8759 4.02628C92.5932 3.03906 93.5769 2.26847 94.8269 1.71449C96.0769 1.16051 97.4973 0.883522 99.0882 0.883522C100.708 0.883522 102.121 1.16051 103.328 1.71449C104.543 2.26847 105.487 3.03906 106.162 4.02628C106.837 5.01349 107.185 6.15696 107.206 7.45668H102.785ZM128.058 8.82031H123.392C123.307 8.21662 123.133 7.6804 122.87 7.21165C122.607 6.73579 122.27 6.33097 121.858 5.99716C121.446 5.66335 120.97 5.40767 120.43 5.23011C119.897 5.05256 119.319 4.96378 118.694 4.96378C117.564 4.96378 116.581 5.24432 115.743 5.8054C114.905 6.35937 114.255 7.16903 113.793 8.23438C113.331 9.29261 113.101 10.5781 113.101 12.0909C113.101 13.6463 113.331 14.9531 113.793 16.0114C114.262 17.0696 114.915 17.8686 115.753 18.4084C116.591 18.9482 117.561 19.218 118.662 19.218C119.28 19.218 119.851 19.1364 120.377 18.973C120.91 18.8097 121.382 18.5717 121.794 18.2592C122.206 17.9396 122.547 17.5526 122.816 17.098C123.093 16.6435 123.285 16.125 123.392 15.5426L128.058 15.5639C127.937 16.5653 127.635 17.5312 127.152 18.4616C126.677 19.3849 126.034 20.2124 125.224 20.9439C124.422 21.6683 123.463 22.2436 122.348 22.6697C121.24 23.0888 119.986 23.2983 118.587 23.2983C116.641 23.2983 114.901 22.858 113.367 21.9773C111.84 21.0966 110.633 19.8217 109.745 18.1527C108.864 16.4837 108.424 14.4631 108.424 12.0909C108.424 9.71165 108.871 7.6875 109.766 6.01847C110.661 4.34943 111.875 3.07812 113.41 2.20455C114.944 1.32386 116.669 0.883522 118.587 0.883522C119.851 0.883522 121.023 1.06108 122.103 1.41619C123.189 1.77131 124.152 2.28977 124.99 2.97159C125.828 3.64631 126.51 4.47372 127.035 5.45383C127.568 6.43395 127.909 7.55611 128.058 8.82031ZM149.616 12.0909C149.616 14.4702 149.165 16.4943 148.263 18.1634C147.368 19.8324 146.146 21.1072 144.598 21.9879C143.057 22.8615 141.324 23.2983 139.399 23.2983C137.46 23.2983 135.72 22.858 134.179 21.9773C132.638 21.0966 131.42 19.8217 130.525 18.1527C129.63 16.4837 129.182 14.4631 129.182 12.0909C129.182 9.71165 129.63 7.6875 130.525 6.01847C131.42 4.34943 132.638 3.07812 134.179 2.20455C135.72 1.32386 137.46 0.883522 139.399 0.883522C141.324 0.883522 143.057 1.32386 144.598 2.20455C146.146 3.07812 147.368 4.34943 148.263 6.01847C149.165 7.6875 149.616 9.71165 149.616 12.0909ZM144.939 12.0909C144.939 10.5497 144.708 9.25 144.246 8.19176C143.792 7.13352 143.149 6.33097 142.318 5.78409C141.487 5.23722 140.514 4.96378 139.399 4.96378C138.284 4.96378 137.311 5.23722 136.48 5.78409C135.649 6.33097 135.003 7.13352 134.541 8.19176C134.086 9.25 133.859 10.5497 133.859 12.0909C133.859 13.6321 134.086 14.9318 134.541 15.9901C135.003 17.0483 135.649 17.8509 136.48 18.3977C137.311 18.9446 138.284 19.218 139.399 19.218C140.514 19.218 141.487 18.9446 142.318 18.3977C143.149 17.8509 143.792 17.0483 144.246 15.9901C144.708 14.9318 144.939 13.6321 144.939 12.0909ZM151.233 23V1.18182H159.841C161.495 1.18182 162.905 1.49787 164.07 2.12997C165.235 2.75497 166.123 3.625 166.733 4.74006C167.351 5.84801 167.66 7.12642 167.66 8.57528C167.66 10.0241 167.348 11.3026 166.723 12.4105C166.098 13.5185 165.192 14.3814 164.006 14.9993C162.827 15.6172 161.4 15.9261 159.723 15.9261H154.237V12.2294H158.978C159.865 12.2294 160.597 12.0767 161.172 11.7713C161.755 11.4588 162.188 11.0291 162.472 10.4822C162.763 9.92827 162.909 9.29261 162.909 8.57528C162.909 7.85085 162.763 7.21875 162.472 6.67898C162.188 6.1321 161.755 5.70952 161.172 5.41122C160.59 5.10582 159.851 4.95312 158.956 4.95312H155.846V23H151.233ZM168.856 23V1.18182H183.558V4.98508H173.469V10.1839H182.802V13.9872H173.469V19.1967H183.601V23H168.856Z" fill="#121212" />
  <path d="M187.993 23.277C187.29 23.277 186.686 23.0284 186.182 22.5312C185.685 22.027 185.436 21.4233 185.436 20.7202C185.436 20.0241 185.685 19.4276 186.182 18.9304C186.686 18.4332 187.29 18.1847 187.993 18.1847C188.675 18.1847 189.271 18.4332 189.783 18.9304C190.294 19.4276 190.55 20.0241 190.55 20.7202C190.55 21.1889 190.429 21.6186 190.188 22.0092C189.953 22.3928 189.644 22.7017 189.261 22.9361C188.877 23.1634 188.455 23.277 187.993 23.277Z" fill="#C9A326" />
</svg>