<svg xmlns="http://www.w3.org/2000/svg" xmlns:xlink="http://www.w3.org/1999/xlink" viewBox="0 0 113.1 116.1"><defs><style>.cls-1{fill:#f7d8ba;}.cls-2{clip-path:url(#clip-path);}.cls-3{fill:#fff;}.cls-4{fill:#1e0b02;}.cls-5{fill:#c67d69;}.cls-6{fill:none;stroke:#a8523f;stroke-linecap:round;stroke-linejoin:round;stroke-width:0.75px;}</style><clipPath id="clip-path" transform="translate(-330.2 -39.9)"><circle class="cls-1" cx="386.7" cy="96.5" r="56.5" transform="translate(45.1 301.7) rotate(-45)"/></clipPath></defs><g id="OBJECTS"><circle class="cls-1" cx="386.7" cy="96.5" r="56.5" transform="translate(-285.1 261.8) rotate(-45)"/><g class="cls-2"><path class="cls-3" d="M442.2,156H333.1c5-22.6,18.5-27.1,18.5-27.1l26-12.1h20l26.1,12.1S437.1,133.4,442.2,156Z" transform="translate(-330.2 -39.9)"/><path class="cls-4" d="M393.6,51.9s9.1-4.1,12.3,3.6-9.2,14.4-9.2,14.4Z" transform="translate(-330.2 -39.9)"/><path class="cls-5" d="M376.6,82.4a6.2,6.2,0,1,1-6.3-6A6.1,6.1,0,0,1,376.6,82.4Z" transform="translate(-330.2 -39.9)"/><path class="cls-6" d="M366.9,81.7s2.5-1.2,4.8,3.1" transform="translate(-330.2 -39.9)"/><circle class="cls-5" cx="75.1" cy="42.7" r="6.2"/><path class="cls-6" d="M408.7,81.6s-2.4-1.1-4.7,3.2" transform="translate(-330.2 -39.9)"/><path class="cls-5" d="M395.8,96.8a21.3,21.3,0,0,1-6.7,3c-3.1.7-6.2-1.2-6.3-1.2l-3.7-2.1-1.5,20.2.4.4a14.8,14.8,0,0,0,18.6.1l.8-.6Z" transform="translate(-330.2 -39.9)"/><path class="cls-4" d="M377.6,94.3s3.5,11.3,11.4,11.2,7.6-11.2,7.6-11.2Z" transform="translate(-330.2 -39.9)"/><path class="cls-5" d="M404.5,71.9a77.4,77.4,0,0,1-1.9,17.2c-1,4.2-3.7,7.1-7.5,9.5l-.7.4a13.5,13.5,0,0,1-13.6.2h0c-4.2-2.3-7.1-5.5-8-10a116,116,0,0,1-2-17.2s-2.3-18.8,15.8-18.5S404.5,71.9,404.5,71.9Z" transform="translate(-330.2 -39.9)"/><circle class="cls-4" cx="49.7" cy="37.5" r="1.5"/><circle class="cls-4" cx="64.1" cy="37.5" r="1.5"/><polyline class="cls-6" points="55.5 39.6 55.5 43.7 58.1 43.7"/><path d="M374.4,71.2l9.6-.9s-.9-2.5-4.8-2.1S374.4,71.2,374.4,71.2Z" transform="translate(-330.2 -39.9)"/><path d="M399.1,71.2l-9.6-.9s.9-2.5,4.7-2.1S399.1,71.2,399.1,71.2Z" transform="translate(-330.2 -39.9)"/><path class="cls-3" d="M382.4,86.9h9.5s-.5,2.9-4.9,2.9S382.4,86.9,382.4,86.9Z" transform="translate(-330.2 -39.9)"/><path class="cls-4" d="M371.5,81s2.7-20.4,1.3-23.8C372.8,57.2,363.7,64.8,371.5,81Z" transform="translate(-330.2 -39.9)"/><path class="cls-4" d="M403.8,80.8s-3-19.5-2.2-25.1C401.6,55.7,410.4,63.6,403.8,80.8Z" transform="translate(-330.2 -39.9)"/><path class="cls-4" d="M401,54.3l-8.4-1.2-.7-1.5-4.4.7-4.4-.7-.8,1.5L374,54.3l-1.2,4.5.3,5.2s1.3-5.9,5.9-4.7c1.1.3,2.4.7,4,1a19,19,0,0,0,4,.5h.9a19.9,19.9,0,0,0,4.1-.5,27.4,27.4,0,0,0,3.9-1c4.3-1.5,5.8,4.4,5.8,4.4l.4-4.9Z" transform="translate(-330.2 -39.9)"/><path class="cls-4" d="M400.8,59.4a11.1,11.1,0,0,1-12.4,1.2s-17.7,10.9-22.7-1c-4.2-9.9,13.1-23.4,31-8.2Z" transform="translate(-330.2 -39.9)"/><path class="cls-5" d="M377.6,116.7l-5.8,2.7s0,9.8,15.7,9.3,16.1-9.1,16.1-9.1l-6.2-3Z" transform="translate(-330.2 -39.9)"/></g></g></svg>