<svg xmlns="http://www.w3.org/2000/svg" xmlns:xlink="http://www.w3.org/1999/xlink" viewBox="0 0 113.1 114.7"><defs><style>.cls-1{fill:#f7d8ba;}.cls-2{clip-path:url(#clip-path);}.cls-3{fill:#1e0b02;}.cls-4{fill:#e8b499;}.cls-5,.cls-8{fill:none;}.cls-5{stroke:#c47268;stroke-linecap:round;stroke-linejoin:round;stroke-width:0.69px;}.cls-6{fill:#fff;}.cls-7{fill:#ef758d;}.cls-8{stroke:#fff;stroke-miterlimit:10;stroke-width:1.94px;}</style><clipPath id="clip-path" transform="translate(-56.6 -198.6)"><circle class="cls-1" cx="113.1" cy="255.1" r="56.5" transform="translate(-160.7 309.2) rotate(-77.3)"/></clipPath></defs><g id="OBJECTS"><circle class="cls-1" cx="113.1" cy="255.1" r="56.5" transform="translate(-217.2 110.7) rotate(-77.3)"/><g class="cls-2"><path class="cls-3" d="M101.8,207s8-10.7,22.1-3.6,7,24.8,7,24.8L97.8,222Z" transform="translate(-56.6 -198.6)"/><path class="cls-3" d="M95.2,228.3s-8.7-17,6.6-21.3l2.8,9.1Z" transform="translate(-56.6 -198.6)"/><path class="cls-4" d="M102.6,236.2a6.1,6.1,0,0,1-6,6.3,6.2,6.2,0,0,1-6.4-6,6.1,6.1,0,0,1,6-6.3A6.2,6.2,0,0,1,102.6,236.2Z" transform="translate(-56.6 -198.6)"/><path class="cls-5" d="M92.9,235.5s2.5-1.2,4.8,3.1" transform="translate(-56.6 -198.6)"/><path class="cls-4" d="M125.1,236.4a6.1,6.1,0,0,0,6.1,6.1,6.1,6.1,0,0,0,6.2-6.1,6.2,6.2,0,0,0-6.2-6.2A6.1,6.1,0,0,0,125.1,236.4Z" transform="translate(-56.6 -198.6)"/><path class="cls-5" d="M134.7,235.4s-2.5-1.1-4.7,3.2" transform="translate(-56.6 -198.6)"/><path class="cls-4" d="M121.7,250.6a21.6,21.6,0,0,1-6.6,3,10.4,10.4,0,0,1-6.3-1.2l-3.7-2.2-1.5,20.3.4.3a14.6,14.6,0,0,0,18.5.2l.8-.7Z" transform="translate(-56.6 -198.6)"/><path class="cls-3" d="M103.6,248.1s3.4,11.3,11.4,11.2,7.6-11.2,7.6-11.2Z" transform="translate(-56.6 -198.6)"/><path class="cls-4" d="M130.4,225.6a72.1,72.1,0,0,1-1.9,17.3c-.9,4.2-4.6,7.1-8.4,9.5l-.7.4c-4.1,2.5-7.5,2.6-11.7.2h0c-4.2-2.4-8.1-5.6-9-10a110.1,110.1,0,0,1-1.9-17.2s-2.4-18.8,15.8-18.6S130.4,225.6,130.4,225.6Z" transform="translate(-56.6 -198.6)"/><path class="cls-3" d="M107.3,231.2a1.5,1.5,0,0,1-3,0,1.5,1.5,0,0,1,3,0Z" transform="translate(-56.6 -198.6)"/><path class="cls-3" d="M121.7,231.2a1.5,1.5,0,0,1-3,0,1.5,1.5,0,0,1,3,0Z" transform="translate(-56.6 -198.6)"/><polyline class="cls-5" points="55.1 36.4 55.1 38.8 57 38.8"/><path d="M100.3,225l9.6-.9s-.8-2.5-4.7-2.1S100.3,225,100.3,225Z" transform="translate(-56.6 -198.6)"/><path d="M125.1,225l-9.6-.9s.8-2.5,4.7-2.1S125.1,225,125.1,225Z" transform="translate(-56.6 -198.6)"/><path class="cls-6" d="M108.4,240.7h9.5s-.5,2.9-4.9,2.9S108.4,240.7,108.4,240.7Z" transform="translate(-56.6 -198.6)"/><path class="cls-3" d="M97.4,234.7s.7-23.1.4-23.7S89.7,218.5,97.4,234.7Z" transform="translate(-56.6 -198.6)"/><path class="cls-3" d="M129.8,234.6l-1.3-25.1S136.4,217.3,129.8,234.6Z" transform="translate(-56.6 -198.6)"/><path class="cls-3" d="M105,208.9s-5.6,1.6-5.4,7.1S96,227,96,227l-1.7-5.6S93,211.1,105,208.9Z" transform="translate(-56.6 -198.6)"/><path class="cls-3" d="M103.6,209.4s4.2-2.4,8.4,2.9,13,9.1,18.6,4.7c0,0-3.6-12.7-17.5-12.5S103.6,209.4,103.6,209.4Z" transform="translate(-56.6 -198.6)"/><path class="cls-7" d="M161,313.3H65.6a173,173,0,0,1,5.3-18.7c2.6-7.4,6.3-11.7,9.5-14.1a16,16,0,0,1,5.5-3.1l6.7-2.8h41.8l6.2,2.8s9.8,2.5,15.1,17.2C157.4,299.6,159.2,306,161,313.3Z" transform="translate(-56.6 -198.6)"/><path class="cls-4" d="M114,265.8l20.4,8.8s-21,19-41.8,0Z" transform="translate(-56.6 -198.6)"/><path class="cls-8" d="M92.6,274.6s7.2,8.6,20.8,8.6,21-8.6,21-8.6" transform="translate(-56.6 -198.6)"/></g></g></svg>