<svg xmlns="http://www.w3.org/2000/svg" xmlns:xlink="http://www.w3.org/1999/xlink" viewBox="0 0 113.1 116.1"><defs><style>.cls-1{fill:#f7d8ba;}.cls-2{clip-path:url(#clip-path);}.cls-3{fill:#4570b4;}.cls-4{fill:#c67d69;}.cls-5{fill:none;stroke:#a8523f;stroke-linecap:round;stroke-linejoin:round;stroke-width:0.75px;}.cls-6{fill:#1e0b02;}.cls-7{fill:#fff;}</style><clipPath id="clip-path" transform="translate(-192.8 -346.9)"><circle class="cls-1" cx="249.3" cy="403.5" r="56.5" transform="translate(-212.3 294.5) rotate(-45)"/></clipPath></defs><g id="OBJECTS"><circle class="cls-1" cx="249.3" cy="403.5" r="56.5" transform="translate(-405 -52.5) rotate(-45)"/><g class="cls-2"><path class="cls-3" d="M304,463H194.9c5-22.6,18.5-27.1,18.5-27.1l26-12.2h20l26.1,12.2S298.9,440.4,304,463Z" transform="translate(-192.8 -346.9)"/><path class="cls-4" d="M238.4,389.4a6.1,6.1,0,0,1-6,6.3,6.1,6.1,0,0,1-6.3-5.9,6.2,6.2,0,0,1,6-6.4A6.1,6.1,0,0,1,238.4,389.4Z" transform="translate(-192.8 -346.9)"/><path class="cls-5" d="M228.8,388.7s2.4-1.2,4.7,3.1" transform="translate(-192.8 -346.9)"/><circle class="cls-4" cx="74.3" cy="42.7" r="6.2"/><path class="cls-5" d="M270.5,388.6s-2.4-1.1-4.7,3.2" transform="translate(-192.8 -346.9)"/><path class="cls-4" d="M257.6,403.8a21.3,21.3,0,0,1-6.7,3c-3.1.6-6.2-1.2-6.3-1.2l-3.7-2.1-1.5,20.2.4.4a14.8,14.8,0,0,0,18.6.1l.8-.6Z" transform="translate(-192.8 -346.9)"/><path class="cls-6" d="M239.4,401.3s3.5,11.3,11.4,11.2,7.6-11.2,7.6-11.2Z" transform="translate(-192.8 -346.9)"/><path class="cls-4" d="M266.3,378.9a77.4,77.4,0,0,1-1.9,17.2c-1,4.2-3.7,7.1-7.5,9.5l-.7.4a13.5,13.5,0,0,1-13.6.2h0c-4.2-2.4-7.1-5.5-8-10a109,109,0,0,1-1.9-17.2s-2.4-18.8,15.7-18.6S266.3,378.9,266.3,378.9Z" transform="translate(-192.8 -346.9)"/><circle class="cls-6" cx="48.9" cy="37.5" r="1.5"/><circle class="cls-6" cx="63.3" cy="37.5" r="1.5"/><polyline class="cls-5" points="54.8 39.6 54.8 43.7 57.4 43.7"/><path d="M236.2,378.2l9.6-.9s-.9-2.5-4.8-2.1S236.2,378.2,236.2,378.2Z" transform="translate(-192.8 -346.9)"/><path d="M260.9,378.2l-9.6-.9s.9-2.5,4.8-2.1S260.9,378.2,260.9,378.2Z" transform="translate(-192.8 -346.9)"/><path class="cls-7" d="M244.2,393.9h9.5s-.4,2.9-4.9,2.9S244.2,393.9,244.2,393.9Z" transform="translate(-192.8 -346.9)"/><path class="cls-6" d="M233.3,387.9s2.7-20.3,1.3-23.7C234.6,364.2,225.5,371.8,233.3,387.9Z" transform="translate(-192.8 -346.9)"/><path class="cls-6" d="M265.6,387.8s-3-19.5-2.2-25.1C263.4,362.7,272.3,370.5,265.6,387.8Z" transform="translate(-192.8 -346.9)"/><path class="cls-6" d="M262.8,358.4l-8.4-1.6-.7-1.9-4.4.9-4.4-.9-.8,1.9-8.3,1.6-1.2,5.9.3,6.7s1.3-7.6,6-6.1c1,.3,2.3.9,3.9,1.3a14.4,14.4,0,0,0,4,.6h.9a15.1,15.1,0,0,0,4.1-.6,25.4,25.4,0,0,0,3.9-1.3c4.3-2,5.9,5.7,5.9,5.7l.3-6.3Z" transform="translate(-192.8 -346.9)"/><path class="cls-4" d="M239.4,423.7l-5.8,2.7s0,9.8,15.8,9.2,16.1-9,16.1-9l-6.3-3Z" transform="translate(-192.8 -346.9)"/><path class="cls-6" d="M232.9,369.4a3.7,3.7,0,1,1-3.7-3.7A3.7,3.7,0,0,1,232.9,369.4Z" transform="translate(-192.8 -346.9)"/><path class="cls-6" d="M233,375.8a3.1,3.1,0,1,1-3.1-3.1A3.1,3.1,0,0,1,233,375.8Z" transform="translate(-192.8 -346.9)"/><path class="cls-6" d="M271.9,375.3a3.1,3.1,0,1,1-3.1-3.1A3,3,0,0,1,271.9,375.3Z" transform="translate(-192.8 -346.9)"/><path class="cls-6" d="M235.6,364.2a3.7,3.7,0,1,1-3.6-3.7A3.7,3.7,0,0,1,235.6,364.2Z" transform="translate(-192.8 -346.9)"/><path class="cls-6" d="M239.3,359.3a3.7,3.7,0,1,1-7.3,0,3.7,3.7,0,0,1,7.3,0Z" transform="translate(-192.8 -346.9)"/><path class="cls-6" d="M244.6,356.5a3.7,3.7,0,1,1-3.6-3.7A3.7,3.7,0,0,1,244.6,356.5Z" transform="translate(-192.8 -346.9)"/><path class="cls-6" d="M250.1,355.3a3.7,3.7,0,1,1-3.7-3.7A3.7,3.7,0,0,1,250.1,355.3Z" transform="translate(-192.8 -346.9)"/><path class="cls-6" d="M266.1,369.4a3.7,3.7,0,1,0,3.7-3.7A3.8,3.8,0,0,0,266.1,369.4Z" transform="translate(-192.8 -346.9)"/><path class="cls-6" d="M263.4,364.2a3.7,3.7,0,1,0,3.7-3.7A3.8,3.8,0,0,0,263.4,364.2Z" transform="translate(-192.8 -346.9)"/><path class="cls-6" d="M259.7,359.3a3.7,3.7,0,1,0,3.7-3.6A3.7,3.7,0,0,0,259.7,359.3Z" transform="translate(-192.8 -346.9)"/><path class="cls-6" d="M254.4,356.5a3.7,3.7,0,1,0,3.7-3.7A3.7,3.7,0,0,0,254.4,356.5Z" transform="translate(-192.8 -346.9)"/><path class="cls-6" d="M249,355.3a3.7,3.7,0,1,0,3.7-3.7A3.6,3.6,0,0,0,249,355.3Z" transform="translate(-192.8 -346.9)"/></g></g></svg>