<svg xmlns="http://www.w3.org/2000/svg" xmlns:xlink="http://www.w3.org/1999/xlink" viewBox="0 0 113.1 115.1"><defs><style>.cls-1{fill:#f7d8ba;}.cls-2{clip-path:url(#clip-path);}.cls-3{fill:#e8b499;}.cls-4,.cls-7{fill:none;}.cls-4{stroke:#c47268;stroke-linecap:round;stroke-linejoin:round;stroke-width:0.69px;}.cls-5{fill:#1e0b02;}.cls-6{fill:#fff;}.cls-7{stroke:#fff;stroke-miterlimit:10;stroke-width:1.94px;}.cls-8{fill:#a74b22;}</style><clipPath id="clip-path" transform="translate(-329.5 -199.5)"><circle class="cls-1" cx="386.1" cy="256.1" r="56.5"/></clipPath></defs><g id="OBJECTS"><circle class="cls-1" cx="56.5" cy="56.5" r="56.5"/><g class="cls-2"><path class="cls-3" d="M375.4,237.5a6.1,6.1,0,0,1-6,6.3,6.1,6.1,0,0,1-6.3-5.9,6.2,6.2,0,1,1,12.3-.4Z" transform="translate(-329.5 -199.5)"/><path class="cls-4" d="M365.7,236.8s2.5-1.2,4.8,3.1" transform="translate(-329.5 -199.5)"/><path class="cls-3" d="M397.9,237.7a6.1,6.1,0,0,0,6.1,6.1,6.1,6.1,0,0,0,6.2-6.1,6.2,6.2,0,0,0-6.2-6.2A6.1,6.1,0,0,0,397.9,237.7Z" transform="translate(-329.5 -199.5)"/><path class="cls-4" d="M407.5,236.7s-2.5-1.1-4.7,3.2" transform="translate(-329.5 -199.5)"/><path class="cls-3" d="M394.5,251.9a20.3,20.3,0,0,1-6.6,3,10.6,10.6,0,0,1-6.3-1.2l-3.7-2.2-1.5,20.3.4.4a14.7,14.7,0,0,0,18.5.1l.8-.6Z" transform="translate(-329.5 -199.5)"/><path class="cls-5" d="M376.4,249.4s3.5,11.3,11.4,11.2,7.6-11.2,7.6-11.2Z" transform="translate(-329.5 -199.5)"/><path class="cls-3" d="M403.8,223.3a123.2,123.2,0,0,1-2.4,20.9c-1,4.2-4.7,7.1-8.5,9.5l-.7.4c-4.1,2.5-7.5,2.6-11.6.2h0c-4.2-2.4-8.1-5.5-9.1-10-1.6-8.2-2.9-12.7-3.4-17-.7-7.1-.4-22.4,17.8-22.4S403.8,223.3,403.8,223.3Z" transform="translate(-329.5 -199.5)"/><path class="cls-5" d="M380.1,232.5a1.5,1.5,0,0,1-1.5,1.4,1.4,1.4,0,0,1-1.4-1.4,1.5,1.5,0,0,1,1.4-1.5A1.5,1.5,0,0,1,380.1,232.5Z" transform="translate(-329.5 -199.5)"/><path class="cls-5" d="M394.5,232.5a1.5,1.5,0,0,1-1.5,1.4,1.4,1.4,0,0,1-1.4-1.4A1.5,1.5,0,0,1,393,231,1.5,1.5,0,0,1,394.5,232.5Z" transform="translate(-329.5 -199.5)"/><polyline class="cls-4" points="55 36.8 55 39.2 56.9 39.2"/><path d="M373.1,226.3l9.6-.9s-.8-2.5-4.7-2.1S373.1,226.3,373.1,226.3Z" transform="translate(-329.5 -199.5)"/><path d="M397.9,226.3l-9.6-.9s.8-2.5,4.7-2.1S397.9,226.3,397.9,226.3Z" transform="translate(-329.5 -199.5)"/><path class="cls-6" d="M433.8,314.6H338.4a179.9,179.9,0,0,1,5.3-18.7c2.6-7.3,6.4-11.7,9.5-14.1a15.9,15.9,0,0,1,5.6-3.1l6.6-2.8h41.9l6.1,2.7s9.8,2.5,15.1,17.2C430.3,300.9,432,307.4,433.8,314.6Z" transform="translate(-329.5 -199.5)"/><path class="cls-3" d="M386.8,267.1l20.5,8.9s-21,18.9-41.9-.1Z" transform="translate(-329.5 -199.5)"/><path class="cls-7" d="M365.4,275.9a28.5,28.5,0,0,0,20.9,8.6,29,29,0,0,0,21-8.5" transform="translate(-329.5 -199.5)"/><path class="cls-8" d="M401.8,236s-.3-.1-1.4,1.7-2,6.6-2,6.6a9,9,0,0,0-3.9-3.7c-2.6-1.3-8-.6-8.9-.5s-4.8-.6-7,.5a9,9,0,0,0-3.9,3.7s-.9-4.8-2-6.6-1.4-1.7-1.4-1.7-.6,9.4,1.9,15,10.7,6.9,12.7,7c0,0,11.5-1.4,14-7S401.8,236,401.8,236Z" transform="translate(-329.5 -199.5)"/><path class="cls-6" d="M381.2,242h9.5s-.5,2.9-4.9,2.9S381.2,242,381.2,242Z" transform="translate(-329.5 -199.5)"/></g></g></svg>