<svg xmlns="http://www.w3.org/2000/svg" xmlns:xlink="http://www.w3.org/1999/xlink" viewBox="0 0 113.1 115.4"><defs><style>.cls-1{fill:#f7d8ba;}.cls-2,.cls-7,.cls-9{fill:none;}.cls-3{clip-path:url(#clip-path);}.cls-4{fill:#d46919;}.cls-5{fill:#fff;}.cls-6{fill:#e0a78f;}.cls-7{stroke:#b9635e;}.cls-7,.cls-9{stroke-linecap:round;stroke-linejoin:round;stroke-width:0.66px;}.cls-8{fill:#1e0b02;}.cls-9{stroke:#000;}.cls-10{clip-path:url(#clip-path-2);}.cls-11{fill:#ef758d;stroke:#ef758d;stroke-miterlimit:10;}</style><clipPath id="clip-path" transform="translate(-56.6 -39.9)"><circle class="cls-1" cx="113.2" cy="96.5" r="56.5" transform="translate(-5.9 185.6) rotate(-77.3)"/></clipPath><clipPath id="clip-path-2" transform="translate(-56.6 -39.9)"><path class="cls-2" d="M155.3,130.4c-1.7-4.8-7-10.9-17-12.9l-.4.2c-12.5,9.1-29.3,8.7-41.9-.2l.6-.3c-10.8,1.8-16.4,8.2-18.2,13.2l-4.3,19.3h85.5Z"/></clipPath></defs><g id="OBJECTS"><circle class="cls-1" cx="113.2" cy="96.5" r="56.5" transform="translate(-62.5 145.7) rotate(-77.3)"/><g class="cls-3"><path class="cls-4" d="M96.3,67.9S93.7,82.4,76.2,93s-8,47.1,24.7,47.9c35.6.9,53.6-43.5,33.1-79.8Z" transform="translate(-56.6 -39.9)"/><path class="cls-5" d="M155.3,130.2c-1.8-4.9-7.4-11.3-18.2-13l-20.2-3.9-20.3,3.9c-10.8,1.7-16.4,8.1-18.2,13l-4.3,19.1H92.7l1.3,1.6,22.5,4.4,23.2-6h19.9Z" transform="translate(-56.6 -39.9)"/><path class="cls-6" d="M96,117.4l21.9-4.4,20.5,4.4-.5.3c-12.5,9-29.3,8.6-41.9-.3Z" transform="translate(-56.6 -39.9)"/><path class="cls-6" d="M105.9,85a5.9,5.9,0,1,1-6.1-5.7A6,6,0,0,1,105.9,85Z" transform="translate(-56.6 -39.9)"/><path class="cls-7" d="M96.6,84.5s2.4-1.2,4.7,2.8" transform="translate(-56.6 -39.9)"/><path class="cls-6" d="M127.5,85a5.9,5.9,0,0,0,6,5.8,5.8,5.8,0,0,0,5.8-6,5.9,5.9,0,0,0-11.8.2Z" transform="translate(-56.6 -39.9)"/><path class="cls-7" d="M136.8,83.9s-2.4-1-4.5,3.2" transform="translate(-56.6 -39.9)"/><ellipse class="cls-4" cx="116.4" cy="70.7" rx="20.3" ry="19" transform="translate(-57.4 -38.7) rotate(-0.6)"/><path class="cls-6" d="M122.6,96.8a14.7,14.7,0,0,1-4.9,3c-2.3.6-4.6-1.1-4.7-1.2l-2.7-2-.9,19.5.3.3c4,4.2,9.7,4.2,13.7,0l.6-.6Z" transform="translate(-56.6 -39.9)"/><path class="cls-8" d="M108.4,94.1s3.4,11.3,9.3,11.1,6-10.7,6-10.7Z" transform="translate(-56.6 -39.9)"/><path class="cls-6" d="M132.6,73.9a66.1,66.1,0,0,1-1.7,15.8c-.9,3.9-3.4,6.6-7.1,8.8l-.7.4a13.4,13.4,0,0,1-13,.4h0c-4-2.2-6.9-5.1-7.8-9.2a98.4,98.4,0,0,1-2-15.7s-1.5-17.3,15.9-17.3S132.6,73.9,132.6,73.9Z" transform="translate(-56.6 -39.9)"/><polyline class="cls-7" points="58.5 43 58.5 45.5 60.2 45.4"/><path class="cls-4" d="M103.2,74l9.2-.9s-.9-2.4-4.6-2S103.2,74,103.2,74Z" transform="translate(-56.6 -39.9)"/><path class="cls-4" d="M128.5,73.8l-9.2-.8s.8-2.4,4.5-2S128.5,73.8,128.5,73.8Z" transform="translate(-56.6 -39.9)"/><path class="cls-8" d="M110.4,79.5A1.5,1.5,0,0,1,109,81a1.4,1.4,0,0,1-1.4-1.4,1.5,1.5,0,0,1,1.4-1.5A1.4,1.4,0,0,1,110.4,79.5Z" transform="translate(-56.6 -39.9)"/><path class="cls-8" d="M124.2,79.4a1.4,1.4,0,0,1-1.4,1.4,1.4,1.4,0,1,1,0-2.8A1.4,1.4,0,0,1,124.2,79.4Z" transform="translate(-56.6 -39.9)"/><path class="cls-9" d="M110.9,89s3.9,2.1,10.2-.1" transform="translate(-56.6 -39.9)"/><path class="cls-4" d="M132.5,69.9s-25.6,1.2-24.7-13.8C107.8,56.1,130.1,49.5,132.5,69.9Z" transform="translate(-56.6 -39.9)"/><path class="cls-4" d="M99.9,70.3s8.9-3.9,8.8-13.1C108.7,57.2,99.5,58.3,99.9,70.3Z" transform="translate(-56.6 -39.9)"/><g class="cls-10"><line class="cls-11" x1="15.1" y1="79.7" x2="104.8" y2="79.7"/><line class="cls-11" x1="15.1" y1="84.3" x2="104.8" y2="84.3"/><line class="cls-11" x1="15.1" y1="89" x2="104.8" y2="89"/><line class="cls-11" x1="15.1" y1="93.7" x2="104.8" y2="93.7"/><line class="cls-11" x1="15.1" y1="98.4" x2="104.8" y2="98.4"/><line class="cls-11" x1="15.1" y1="103.1" x2="104.8" y2="103.1"/><line class="cls-11" x1="15.1" y1="107.8" x2="104.8" y2="107.8"/><line class="cls-11" x1="15.1" y1="112.4" x2="104.8" y2="112.4"/></g></g></g></svg>