<svg xmlns="http://www.w3.org/2000/svg" xmlns:xlink="http://www.w3.org/1999/xlink" viewBox="0 0 113.1 113.6"><defs><style>.cls-1{fill:#f7d8ba;}.cls-2{clip-path:url(#clip-path);}.cls-3{fill:#a74b22;}.cls-4{fill:#28466d;}.cls-5{fill:#e0a78f;}.cls-6,.cls-8{fill:none;stroke-linecap:round;stroke-linejoin:round;stroke-width:0.66px;}.cls-6{stroke:#b9635e;}.cls-7{fill:#1e0b02;}.cls-8{stroke:#000;}</style><clipPath id="clip-path" transform="translate(-192.9 -198.6)"><circle class="cls-1" cx="249.4" cy="255.1" r="56.5" transform="translate(-55.2 441) rotate(-77)"/></clipPath></defs><g id="OBJECTS"><circle class="cls-1" cx="249.4" cy="255.1" r="56.5" transform="translate(-248 242.4) rotate(-77)"/><g class="cls-2"><path class="cls-3" d="M271.8,224a22.6,22.6,0,0,0-8.9-8.8,20.4,20.4,0,0,0-13.3-2.1h0a20.2,20.2,0,0,0-13.2,2.1,22.6,22.6,0,0,0-8.9,8.8c-6.5,11.1-6.3,46.1-6.3,46.1l27,1.7v.2h2.9v-.2l27-1.7S278.2,235.1,271.8,224Z" transform="translate(-192.9 -198.6)"/><path class="cls-4" d="M288.5,293c-1.9-4.8-7.4-11.2-18.3-12.9l-20.2-4-20.2,4c-10.9,1.7-16.4,8.1-18.3,12.9l-4.2,19.2h85.4Z" transform="translate(-192.9 -198.6)"/><path class="cls-5" d="M229.2,280.3l21.9-4.5,20.4,4.4-.4.3c-12.5,9-29.3,8.6-41.9-.2Z" transform="translate(-192.9 -198.6)"/><path class="cls-5" d="M239.1,247.8a5.9,5.9,0,0,1-5.7,6.2,6,6,0,0,1-6.2-5.7,6,6,0,0,1,11.9-.5Z" transform="translate(-192.9 -198.6)"/><path class="cls-6" d="M229.8,247.3s2.3-1.2,4.6,2.9" transform="translate(-192.9 -198.6)"/><path class="cls-5" d="M260.7,247.8a5.8,5.8,0,0,0,5.9,5.8,5.9,5.9,0,1,0-.1-11.8A5.8,5.8,0,0,0,260.7,247.8Z" transform="translate(-192.9 -198.6)"/><path class="cls-6" d="M269.9,246.8s-2.4-1.1-4.5,3.1" transform="translate(-192.9 -198.6)"/><ellipse class="cls-3" cx="249.6" cy="233.5" rx="20.3" ry="19" transform="translate(-195.3 -196) rotate(-0.6)"/><path class="cls-5" d="M255.7,259.6a13.6,13.6,0,0,1-4.9,3c-2.3.6-4.6-1.1-4.6-1.1s-2.8-2.1-2.8-2.1l-.9,19.5.4.3c4,4.3,9.7,4.3,13.6,0l.6-.6Z" transform="translate(-192.9 -198.6)"/><path class="cls-7" d="M241.6,256.9s3.4,11.3,9.2,11.2,6.1-10.8,6.1-10.8Z" transform="translate(-192.9 -198.6)"/><path class="cls-5" d="M265.7,236.7a66.8,66.8,0,0,1-1.6,15.8c-.9,3.9-3.5,6.6-7.2,8.8l-.6.4a13.4,13.4,0,0,1-13,.4h0c-4.1-2.2-7-5.1-7.9-9.2a97.1,97.1,0,0,1-2-15.7s-1.5-17.3,15.9-17.3S265.7,236.7,265.7,236.7Z" transform="translate(-192.9 -198.6)"/><polyline class="cls-6" points="55.4 47.1 55.4 49.6 57.1 49.6"/><path d="M236.3,236.8l9.2-.9s-.8-2.4-4.5-1.9S236.3,236.8,236.3,236.8Z" transform="translate(-192.9 -198.6)"/><path d="M261.7,236.6l-9.3-.8s.8-2.4,4.6-2S261.7,236.6,261.7,236.6Z" transform="translate(-192.9 -198.6)"/><path class="cls-7" d="M243.6,242.4a1.5,1.5,0,0,1-1.4,1.4,1.5,1.5,0,0,1-1.5-1.4,1.4,1.4,0,0,1,1.4-1.4A1.5,1.5,0,0,1,243.6,242.4Z" transform="translate(-192.9 -198.6)"/><path class="cls-7" d="M257.4,242.2a1.4,1.4,0,0,1-1.4,1.4,1.3,1.3,0,0,1-1.4-1.4,1.4,1.4,0,1,1,2.8,0Z" transform="translate(-192.9 -198.6)"/><path class="cls-8" d="M244,251.8s4,2.1,10.2-.1" transform="translate(-192.9 -198.6)"/><path class="cls-3" d="M232.1,233.8a29.8,29.8,0,0,1,8.6-2l.8-6.5,1.6,6.6H250l1.2-4.6,1.2,4.6,8.3.4,1-4,.6,4.3,5.4.4s-3.1-14-15.7-15.3S231.2,226,232.1,233.8Z" transform="translate(-192.9 -198.6)"/></g></g></svg>