<svg xmlns="http://www.w3.org/2000/svg" xmlns:xlink="http://www.w3.org/1999/xlink" viewBox="0 0 113.1 117.5"><defs><style>.cls-1{fill:#f7d8ba;}.cls-2{clip-path:url(#clip-path);}.cls-3{fill:#d3445b;}.cls-4{fill:#e8b499;}.cls-5{fill:#1e0b02;}.cls-10,.cls-6,.cls-8{fill:none;}.cls-6{stroke:#c47268;stroke-width:0.69px;}.cls-6,.cls-8{stroke-linecap:round;stroke-linejoin:round;}.cls-7,.cls-9{fill:#fff;}.cls-8{stroke:#1e0b02;stroke-width:0.96px;}.cls-9{opacity:0.23;}.cls-10{stroke:#fff;stroke-miterlimit:10;stroke-width:0.49px;}</style><clipPath id="clip-path" transform="translate(-192.4 -39.9)"><circle class="cls-1" cx="249" cy="96.5" r="56.5" transform="translate(99.1 317.4) rotate(-77)"/></clipPath></defs><g id="OBJECTS"><circle class="cls-1" cx="249" cy="96.5" r="56.5" transform="translate(-93.3 277.5) rotate(-77)"/><g class="cls-2"><path class="cls-3" d="M226.9,120.9l-2.4,30.7H205c2-4.8,4.4-10.5,6.6-16.2,4.9-12.7,14.3-14.4,15.2-14.5Z" transform="translate(-192.4 -39.9)"/><path class="cls-3" d="M296.4,151.6h-20l-3.2-31.1h0c.7,0,11.1,1.7,16.4,14.8C292,141.3,294.4,147,296.4,151.6Z" transform="translate(-192.4 -39.9)"/><path class="cls-3" d="M278.4,151.6,249,157.4l-26.1-5.8v-29a16.3,16.3,0,0,1,3.8-1.7,35.3,35.3,0,0,1,6.3-1.3l17.5,1.8,17.5-1.8a34.1,34.1,0,0,1,5.1.9h0a18.7,18.7,0,0,1,5.1,2Z" transform="translate(-192.4 -39.9)"/><path class="cls-4" d="M226.9,120.9l20.6-5.4h7.1l18.6,5h0c-9.5,9-33.2,16.3-45.3.8Z" transform="translate(-192.4 -39.9)"/><path class="cls-3" d="M221.1,142.3" transform="translate(-192.4 -39.9)"/><path class="cls-5" d="M280.7,102a12.9,12.9,0,0,1,.3-4.8,21.7,21.7,0,0,0-4.5-19.9c-3.8-4.5-4.7-11.3-4.7-11.3h0c-2.8-9.2-12.3-15.6-20.9-15.6s-18,6-20.8,15.2h0s-1.2,7.3-4.8,11.7-6.5,11.9-4.5,19.9a11.1,11.1,0,0,1,.4,4.8,6.9,6.9,0,0,1-1.2,3.3h61.8A5.9,5.9,0,0,1,280.7,102Z" transform="translate(-192.4 -39.9)"/><path class="cls-4" d="M240.2,84.5a6.1,6.1,0,1,1-6.2-5.8A6.1,6.1,0,0,1,240.2,84.5Z" transform="translate(-192.4 -39.9)"/><path class="cls-6" d="M230.7,83.9s2.4-1.2,4.7,3" transform="translate(-192.4 -39.9)"/><path class="cls-4" d="M262.3,84.7a6.1,6.1,0,1,0,6.1-6A6.1,6.1,0,0,0,262.3,84.7Z" transform="translate(-192.4 -39.9)"/><path class="cls-6" d="M271.8,83.8s-2.5-1.1-4.6,3.1" transform="translate(-192.4 -39.9)"/><circle class="cls-5" cx="58.7" cy="33.3" r="19"/><path class="cls-4" d="M257.1,96.8a14.4,14.4,0,0,1-5,3,5.7,5.7,0,0,1-4.7-1.3l-2.8-2-1.2,19.9.4.3c4,4.4,9.9,4.4,13.9.1l.6-.6Z" transform="translate(-192.4 -39.9)"/><path class="cls-5" d="M242.7,93.8s3.3,11.7,9.3,11.5,6.3-10.9,6.3-10.9Z" transform="translate(-192.4 -39.9)"/><path class="cls-4" d="M267.6,73.4a68.5,68.5,0,0,1-1.9,16.2c-.9,3.9-3.6,6.7-7.4,8.9l-.7.4a13.2,13.2,0,0,1-13.2.2h0c-4.2-2.2-7.1-5.2-8-9.4a102.5,102.5,0,0,1-1.8-16.1S233.2,55.9,251,56.1,267.6,73.4,267.6,73.4Z" transform="translate(-192.4 -39.9)"/><polyline class="cls-6" points="57.2 43.2 57.2 45.8 59 45.8"/><path d="M237.5,73.3l9.5-.9s-.9-2.4-4.7-2S237.5,73.3,237.5,73.3Z" transform="translate(-192.4 -39.9)"/><path d="M263.4,73.3l-9.4-.9s.9-2.4,4.7-2S263.4,73.3,263.4,73.3Z" transform="translate(-192.4 -39.9)"/><path class="cls-7" d="M245.4,88.1h10.3s-.4,2.7-5.4,2.7S245.4,88.1,245.4,88.1Z" transform="translate(-192.4 -39.9)"/><path class="cls-8" d="M245.9,79.6s-2.5-2-4.6,0" transform="translate(-192.4 -39.9)"/><path class="cls-8" d="M259.6,79.6a3.2,3.2,0,0,0-4.4,0" transform="translate(-192.4 -39.9)"/><path class="cls-9" d="M241.3,73.1l6.9,9.4s-2.1,4-5.4,3.5l-7-9.1S237.7,72.8,241.3,73.1Z" transform="translate(-192.4 -39.9)"/><path class="cls-9" d="M258.3,73.1l6.9,9.4s-2.1,4-5.4,3.5l-7-9.1S254.7,72.8,258.3,73.1Z" transform="translate(-192.4 -39.9)"/><path class="cls-10" d="M248.7,79.6a6.8,6.8,0,0,1-6.7,6.8,6.9,6.9,0,0,1-6.8-6.8,6.8,6.8,0,0,1,6.8-6.7A6.7,6.7,0,0,1,248.7,79.6Z" transform="translate(-192.4 -39.9)"/><path class="cls-10" d="M265.7,79.6a6.8,6.8,0,0,1-6.7,6.8,6.9,6.9,0,0,1-6.8-6.8,6.8,6.8,0,0,1,6.8-6.7A6.7,6.7,0,0,1,265.7,79.6Z" transform="translate(-192.4 -39.9)"/><path class="cls-10" d="M248.7,79.6a5.4,5.4,0,0,1,3.5,0" transform="translate(-192.4 -39.9)"/><path class="cls-5" d="M232.8,69.4s15.9-3,19.2-14.9C252,54.5,235.1,48.5,232.8,69.4Z" transform="translate(-192.4 -39.9)"/><path class="cls-5" d="M267.6,69.4s-15.9-3-19.2-14.9C248.4,54.5,265.3,48.5,267.6,69.4Z" transform="translate(-192.4 -39.9)"/></g></g></svg>