<svg xmlns="http://www.w3.org/2000/svg" xmlns:xlink="http://www.w3.org/1999/xlink" viewBox="0 0 113.1 124.9"><defs><style>.cls-1{fill:#ffd9ba;}.cls-2{clip-path:url(#clip-path);}.cls-3{fill:#d3445b;}.cls-4{fill:#966050;}.cls-5{fill:#7c483d;}.cls-6,.cls-8{fill:none;stroke-linecap:round;stroke-linejoin:round;}.cls-6{stroke:#000;stroke-width:0.66px;}.cls-7{fill:#1e0b02;}.cls-8{stroke:#684138;}</style><clipPath id="clip-path" transform="translate(-330.3 -347)"><circle class="cls-1" cx="386.9" cy="403.5" r="56.5" transform="translate(-96.4 684.5) rotate(-76.4)"/></clipPath></defs><g id="OBJECTS"><circle class="cls-1" cx="386.9" cy="403.5" r="56.5" transform="translate(-426.7 337.5) rotate(-76.4)"/><g class="cls-2"><path class="cls-3" d="M425,452.8c-1.8-4.9-7.4-11.3-18.3-13l-20.2-4-20.2,4c-10.8,1.7-16.4,8.1-18.2,13l-4.3,19.1h85.5Z" transform="translate(-330.3 -347)"/><path class="cls-4" d="M365.7,440l21.9-4.4,20.5,4.3-.5.4c-12.5,9-29.3,8.6-41.9-.3Z" transform="translate(-330.3 -347)"/><path class="cls-5" d="M375.6,407.6a5.9,5.9,0,0,1-11.8.4,5.9,5.9,0,1,1,11.8-.4Z" transform="translate(-330.3 -347)"/><path class="cls-6" d="M366.3,407s2.4-1.1,4.7,2.9" transform="translate(-330.3 -347)"/><path class="cls-5" d="M397.2,407.5a5.9,5.9,0,0,0,6,5.9,5.8,5.8,0,0,0,5.8-6,5.8,5.8,0,0,0-5.9-5.8A5.9,5.9,0,0,0,397.2,407.5Z" transform="translate(-330.3 -347)"/><path class="cls-6" d="M406.4,406.5s-2.4-1-4.4,3.1" transform="translate(-330.3 -347)"/><ellipse cx="386.1" cy="393.3" rx="20.3" ry="19" transform="translate(-334.4 -343) rotate(-0.6)"/><path class="cls-4" d="M392.2,419.4a13.8,13.8,0,0,1-4.8,3c-2.4.6-4.6-1.2-4.7-1.2l-2.7-2-.9,19.5.3.3c4,4.2,9.7,4.2,13.7,0l.5-.6Z" transform="translate(-330.3 -347)"/><path class="cls-7" d="M378.1,416.6s3.4,11.4,9.3,11.2,6-10.8,6-10.8Z" transform="translate(-330.3 -347)"/><path class="cls-4" d="M402.3,396.4a67,67,0,0,1-1.7,15.9c-.9,3.8-3.5,6.6-7.1,8.8l-.7.4a13.4,13.4,0,0,1-13,.3h0c-4.1-2.1-6.9-5-7.8-9.1a99,99,0,0,1-2-15.8s-1.6-17.3,15.9-17.2S402.3,396.4,402.3,396.4Z" transform="translate(-330.3 -347)"/><polyline class="cls-8" points="54.5 58.5 54.5 61 56.2 60.9"/><path d="M372.9,396.6l9.2-.9s-.9-2.4-4.6-2S372.9,396.6,372.9,396.6Z" transform="translate(-330.3 -347)"/><path d="M398.2,396.3l-9.2-.7s.8-2.4,4.5-2.1S398.2,396.3,398.2,396.3Z" transform="translate(-330.3 -347)"/><path class="cls-7" d="M380.1,402.1a1.4,1.4,0,0,1-2.8,0,1.4,1.4,0,0,1,2.8,0Z" transform="translate(-330.3 -347)"/><path class="cls-7" d="M393.9,402a1.4,1.4,0,0,1-1.4,1.4,1.4,1.4,0,1,1,1.4-1.4Z" transform="translate(-330.3 -347)"/><path class="cls-6" d="M380.6,411.5s3.9,2.1,10.2-.1" transform="translate(-330.3 -347)"/><path d="M402.2,392.5s-25.6,1.2-24.7-13.8C377.5,378.7,399.8,372.1,402.2,392.5Z" transform="translate(-330.3 -347)"/><path d="M369.5,392.8s9-3.8,8.9-13.1C378.4,379.7,369.2,380.9,369.5,392.8Z" transform="translate(-330.3 -347)"/><circle cx="55.1" cy="17.6" r="12"/><path d="M385,372.2a7.2,7.2,0,1,1-7.1-6.7A6.9,6.9,0,0,1,385,372.2Z" transform="translate(-330.3 -347)"/><circle cx="64.2" cy="26.9" r="6.3"/></g></g></svg>